<svg xmlns="http://www.w3.org/2000/svg" fill="none" viewBox="0 0 347 400"><g clip-path="url(#a)"><path fill="#8FCF32" d="m173.2.8 172.3 99.5-172.3 99.5L.9 100.2z"/><path stroke="#000" d="M0 .5h199v199H0z" transform="matrix(.866 .5 -.866 .5 173.6 .5)"/><path fill="#2B4C93" d="M172.7 200.3v199L.4 299.8v-199z"/><path stroke="#000" d="M-.4.3h199v199H-.4z" transform="matrix(0 1 -.866 -.5 173 200.8)"/><path fill="#40BEE9" d="M345.7 100.8v199l-172.3 99.5v-199z"/><path stroke="#000" d="M-.4.8h199v199H-.4z" transform="matrix(0 1 -.866 .5 346.4 100.8)"/><g clip-path="url(#b)"><path fill="#529004" d="m54.1 193.9 65 37.5v75l-65-37.5z"/><path fill="#0986B2" stroke="#000" d="m16.5 202.8 64.1-37 37.8 65.5-64 37z"/></g><path stroke="#000" d="M.4.8h74v74H.4z" transform="matrix(.866 .5 0 1 54.2 193.7)"/><g clip-path="url(#c)"><path fill="#74BA1C" d="M292 193.9v75l-64.9 37.5v-75z"/><path fill="#3951AB" stroke="#000" d="m265.6 165.8 64 37-37.7 65.5-64.1-37z"/></g><path stroke="#000" d="M-.4.8h74v74h-74z" transform="matrix(0 1 -.866 .5 292.3 194.7)"/><g clip-path="url(#d)"><path fill="#3E2800" d="m108.3 100.3 64.9-37.5 65 37.5-65 37.5z"/><mask id="e" fill="#fff"><path d="m238.2 175.3-65-37.6v-75l65 37.5v75Z"/></mask><path fill="#32479A" d="m238.2 175.3-65-37.6v-75l65 37.5v75Z"/><path fill="#000" d="m173.3 137.8.8.4v-75l-.8-.5-1-.5v75z" mask="url(#e)"/><path fill="#0BBFFF" d="M108.3 175.3v-75l64.9-37.5v75z"/></g><path stroke="#000" d="M.9 0h74v74H.9z" transform="matrix(.866 -.5 .866 .5 108.4 100.7)"/></g><defs><clipPath id="a"><path fill="#fff" d="M0 0h346.3v400H0z"/></clipPath><clipPath id="b"><path fill="#fff" d="m54.1 193.9 65 37.5v75l-65-37.5z"/></clipPath><clipPath id="c"><path fill="#fff" d="M292 193.9v75l-64.9 37.5v-75z"/></clipPath><clipPath id="d"><path fill="#fff" d="m108.3 100.3 64.9-37.5 65 37.5-65 37.5z"/></clipPath></defs></svg>