<svg xmlns="http://www.w3.org/2000/svg" xmlns:xlink="http://www.w3.org/1999/xlink" viewBox="0 0 16 16"><defs><linearGradient id="a" gradientTransform="translate(-13 2)"><stop offset="0" stop-color="#63a451"/></linearGradient><linearGradient xlink:href="#a" id="b" x1="2" x2="14" y1="8" y2="8" gradientUnits="userSpaceOnUse"/></defs><path fill="#2a551f" d="M4.1016 2.5742c-.831 0-1.5.669-1.5 1.5v7.7363c0 .831.669 1.4989 1.5 1.5a394.97 394.97 0 0 0 2.4687-.002A4.9418 4.9418 0 0 1 6 11c0-2.7443 2.2557-5 5-5 .961 0 1.8616.2765 2.627.754a47.157 47.157 0 0 1 .002-.5274V4.0742c0-.831-.669-1.5-1.5-1.5z"/><path fill="url(#b)" d="M4 2c-1.0994 0-2 .9006-2 2v8c0 1.0994.9006 2 2 2h3.0098a5.0256 5.0256 0 0 1-.588-1H4c-.5626 0-1-.4374-1-1V4c0-.5626.4374-1 1-1h8c.5626 0 1 .4374 1 1v2.4219c.3559.1571.6906.3538.998.586L14 4c.0015-1.0994-.9006-2-2-2H6.7734Z" overflow="visible"/><g transform="translate(-13 2)"><circle cx="24" cy="9" r="3.5556" fill="#2a551f" stroke="url(#a)" stroke-linejoin="round" stroke-width=".8889"/><path fill="url(#a)" d="m23.9 7.7 1.2-.4a.4743.4743 45 0 1 .6.6l-.4 1.2a1.8974 1.8974 135 0 1-1.2 1.2l-1.2.4a.4743.4743 45 0 1-.6-.6l.4-1.2a1.8974 1.8974 135 0 1 1.2-1.2z"/></g></svg>