<svg xmlns="http://www.w3.org/2000/svg" xmlns:xlink="http://www.w3.org/1999/xlink" viewBox="0 0 16 16"><defs><linearGradient id="b"><stop offset="0" stop-color="#fff7f7"/></linearGradient><linearGradient id="a" gradientTransform="translate(-13 2)"><stop offset="0" stop-color="#63a451"/></linearGradient><linearGradient xlink:href="#a" id="d" x1="2" x2="14" y1="8" y2="8" gradientUnits="userSpaceOnUse"/><linearGradient xlink:href="#b" id="c" x1="2.6016" x2="13.629" y1="7.9428" y2="7.9428" gradientUnits="userSpaceOnUse"/></defs><path fill="url(#c)" d="M4.1016 2.5742c-.831 0-1.5.669-1.5 1.5v7.7363c0 .831.669 1.4989 1.5 1.5a394.97 394.97 0 0 0 2.4687-.002A4.9418 4.9418 0 0 1 6 11c0-2.7443 2.2557-5 5-5 .961 0 1.8616.2765 2.627.754a47.157 47.157 0 0 1 .002-.5274V4.0742c0-.831-.669-1.5-1.5-1.5z"/><path fill="url(#d)" d="M4 2c-1.0994 0-2 .9006-2 2v8c0 1.0994.9006 2 2 2h3.0098a5.0256 5.0256 0 0 1-.588-1H4c-.5626 0-1-.4374-1-1V4c0-.5626.4374-1 1-1h8c.5626 0 1 .4374 1 1v2.4219c.3559.1571.6906.3538.998.586L14 4c.0015-1.0994-.9006-2-2-2H6.7734Z" overflow="visible"/><path fill="url(#a)" d="M24 10c.5522 0 1-.4477 1-1s-.4478-1-1-1c-.5523 0-1 .4477-1 1s.4477 1 1 1Z" transform="translate(-13 2)"/><path fill="url(#a)" fill-rule="evenodd" d="M25.1216 12.6756a.5001.5001 0 0 1-.4682.3244h-1.307a.5001.5001 0 0 1-.4682-.3244l-.2495-.6654a.5.5 0 0 0-.5502-.3176l-.7009.1166a.5.5 0 0 1-.515-.2433l-.6535-1.1318a.5.5 0 0 1 .0469-.5677l.4514-.5487a.5.5 0 0 0 0-.6353l-.4515-.5488a.5.5 0 0 1-.0469-.5677l.6535-1.1318a.5.5 0 0 1 .515-.2433l.701.1166a.5.5 0 0 0 .5502-.3176l.2495-.6654A.5.5 0 0 1 23.3464 5h1.307a.5.5 0 0 1 .4682.3244l.2495.6654a.5.5 0 0 0 .5502.3176l.7009-.1166a.5.5 0 0 1 .5151.2433l.6535 1.1318a.5001.5001 0 0 1-.0469.5677l-.4515.5488a.5.5 0 0 0 0 .6353l.4515.5487a.5.5 0 0 1 .0468.5677l-.6535 1.1318a.5.5 0 0 1-.515.2433l-.7009-.1166a.5.5 0 0 0-.5502.3176zM23.6929 12h.614l.1278-.3409a1.5001 1.5001 0 0 1 1.6506-.953l.3592.0598.307-.5318-.2313-.2811a1.5 1.5 0 0 1 0-1.906l.2313-.2811-.307-.5318-.3592.0598a1.5001 1.5001 0 0 1-1.6506-.953L24.3069 6h-.614l-.1278.3409a1.5001 1.5001 0 0 1-1.6506.953l-.3592-.0598-.307.5318.2313.2811a1.5 1.5 0 0 1 0 1.906l-.2313.2811.307.5318.3592-.0598a1.5002 1.5002 0 0 1 1.6506.953z" clip-rule="evenodd" transform="translate(-13 2)"/><path fill="url(#b)" fill-rule="evenodd" d="M24.311 12h-.614l-.1278-.3409a1.5002 1.5002 0 0 0-1.6507-.953l-.359.0598-.307-.5318.2312-.2811a1.5 1.5 0 0 0 0-1.906l-.2313-.2811.307-.5318.3591.0598a1.5002 1.5002 0 0 0 1.6507-.953L23.697 6h.614l.1278.3409a1.5001 1.5001 0 0 0 1.6506.953l.3592-.0598.307.5318-.2313.2811a1.5 1.5 0 0 0 0 1.906l.2313.2811-.307.5318-.3592-.0598a1.5001 1.5001 0 0 0-1.6506.953zm.693-3c0 .5523-.4477 1-1 1-.5522 0-1-.4477-1-1s.4478-1 1-1c.5523 0 1 .4477 1 1z" clip-rule="evenodd" transform="translate(-13 2)"/></svg>