<svg xmlns="http://www.w3.org/2000/svg" fill="none" viewBox="0 0 16 16"><path fill="#FFF7F7" stroke="#43912E" d="M12 2.5H4A1.5 1.5 0 0 0 2.5 4v8A1.5 1.5 0 0 0 4 13.5h8a1.5 1.5 0 0 0 1.5-1.5V4A1.5 1.5 0 0 0 12 2.5Z"/><mask id="a" fill="#fff"><path d="m8 4.5 2.997 1.75-3 1.752L5 6.252z"/></mask><path fill="#43912E" d="m8 4.5.863-.504-.864-.505-.863.505zm2.997 1.75.432.253.863-.505-.432-.252zm-3 1.752-.431.252.431.252.432-.252zM5 6.252l-.864-.505L3.705 6l.863.505zM8 4.5l-.864.504 2.997 1.75.864-.504.863-.504-2.997-1.75zm2.997 1.75-.432-.252-3 1.752.432.252.432.252 3-1.751zm-3 1.752.432-.252L5.432 6 5 6.251l-.432.252 2.998 1.75zM5 6.252l.864.504 2.999-1.752-.864-.504-.863-.504-3 1.751z" mask="url(#a)"/><mask id="b" fill="#fff"><path d="M11 6.247v3.5L8 11.5V7.998z"/></mask><path fill="#43912E" d="m11 6.247.864-.505v-.5L11 5.747zm0 3.5v1l.864-.503v-1zM8 11.5l-.431.252v1L8 12.5zm0-3.502v-.5l-.431.253v.5zm3-1.751-.864.504v3.501L11 9.748l.864-.504V5.742zm0 3.5v-1L8 10.5v2l3-1.752zM8 11.5l.432-.253v-3.5l-.431.251-.432.253v3.5zm0-3.502v.5l3-1.751v-1L8 7.498z" mask="url(#b)"/><mask id="c" fill="#fff"><path d="M5 9.749V6.247L8 8v3.5z"/></mask><path fill="#43912E" d="m5 9.749-.864-.505v1L5 10.75zm0-3.502v-.5l-.864-.504v.5zM8 8l.431.252v-.5L8 7.5zm0 3.5v1l.431.252v-1zM5 9.75l.864.504V6.752L5 6.247l-.864-.504v3.501zm0-3.502v.5L8 8.5v-1L5 5.747zM8 8l-.432-.252v3.501l.431.252.432.252v-3.5zm0 3.5v-1L5 8.75v2l3 1.75z" mask="url(#c)"/></svg>