<svg xmlns="http://www.w3.org/2000/svg" viewBox="0 0 16 16"><path fill="#fff7f7" d="M4.1016 2.5742c-.831 0-1.5.669-1.5 1.5v7.7363c0 .831.669 1.5 1.5 1.5h2.7148c-.557-.37-.5904-.708-.5898-1.2011V8.33a1.5001 1.5001 0 0 1 .75-1.2988L10.25 5.1425a1.5001 1.5001 0 0 1 1.5 0l1.879 1.084V4.0742c0-.831-.669-1.5-1.5-1.5H4.1015z"/><path fill="#43912e" d="M4 2c-1.0994 0-2 .9006-2 2v8c0 1.0994.9006 2 2 2h3.998l-1.0214-.5898A26.3383 26.3383 0 0 1 6.287 13H4c-.5626 0-1-.4374-1-1V4c0-.5626.4374-1 1-1h8c.5626 0 1 .4374 1 1v1.8633l.996.5762L14 4c.0015-1.0994-.9006-2-2-2H4z" overflow="visible"/><path fill="none" stroke="#43912e" stroke-linejoin="round" d="M11 10.2205V14M7.7268 8.3307 11 10.2205l3.2732-1.8898m-6.5464 0v3.7795L11 14l3.2732-1.8898V8.3307L11 6.441Z"/></svg>