<svg xmlns="http://www.w3.org/2000/svg" xmlns:xlink="http://www.w3.org/1999/xlink" viewBox="0 0 16 16"><defs><linearGradient id="b" gradientTransform="matrix(1.04861 0 0 2.2344 -.6806 -11.662)"><stop offset="0" stop-color="#2a551f"/></linearGradient><linearGradient id="a" gradientTransform="translate(-13.2929 1.4645)"><stop offset="0" stop-color="#63a451"/></linearGradient><linearGradient xlink:href="#a" id="d" x1="2" x2="14" y1="8" y2="8" gradientUnits="userSpaceOnUse"/><linearGradient xlink:href="#b" id="c" x1="2.6016" x2="13.629" y1="7.9428" y2="7.9428" gradientUnits="userSpaceOnUse"/></defs><path fill="url(#b)" d="M8.7569 8.4476H14v2.2344H8.7569z"/><path fill="url(#c)" d="M4.1016 2.5742c-.831 0-1.5.669-1.5 1.5v7.7363c0 .831.669 1.4989 1.5 1.5a394.97 394.97 0 0 0 2.4687-.002c.1463.0005.2895-.0005.4297-.0019V8.8101c0-1.3055 1.1953-2.2787 2.2148-2.2789h4.4122c.0003-.1.001-.2016.002-.3046V4.0742c0-.831-.669-1.5-1.5-1.5z"/><path fill="url(#d)" d="M4 2c-1.0994 0-2 .9006-2 2v8c0 1.0994.9006 2 2 2h3v-1H4c-.5626 0-1-.4374-1-1V4c0-.5626.4374-1 1-1h8c.5626 0 1 .4374 1 1v2.5313h1V4c.0015-1.0994-.9006-2-2-2H6.7734Z" overflow="visible"/><g fill="none" stroke="url(#a)" stroke-linecap="round" stroke-linejoin="round" stroke-width="1.1484" transform="matrix(.8696 0 0 .87188 -5.6218 -10.2602)"><path d="M17.0938 21.1094h5.5468v3.9531c0 .2137-.2237.4688-.4375.4688H20.625l-.2813.2812v1.9219c0 .413-.509.8167-.9218.8281-.4074.0112-.9532-.3581-.9532-.7656v-1.8907l-.217-.376h-1.658c-.206 0-.437-.231-.437-.437v-3.0307c0-.5027.3193-.915.937-.9531z"/><path d="M16.175 24.0195h6.4082v-.022"/></g></svg>