<svg xmlns="http://www.w3.org/2000/svg" xmlns:xlink="http://www.w3.org/1999/xlink" viewBox="0 0 16 16"><defs><linearGradient id="b"><stop offset="0" stop-color="#2a551f"/></linearGradient><linearGradient id="a" gradientTransform="translate(-13.2929 1.4645)"><stop offset="0" stop-color="#63a451"/></linearGradient><linearGradient xlink:href="#a" id="d" x1="2" x2="14" y1="8" y2="8" gradientUnits="userSpaceOnUse"/><linearGradient xlink:href="#b" id="c" x1="2.6016" x2="13.629" y1="7.9428" y2="7.9428" gradientUnits="userSpaceOnUse"/></defs><path fill="url(#c)" d="M4.1016 2.5742c-.831 0-1.5.669-1.5 1.5v7.7363c0 .831.669 1.4989 1.5 1.5a394.97 394.97 0 0 0 2.4687-.002c-.0893-.1696.1316-.2239.5156-.2226L6 12a.7073.7073 0 0 1 0-1l5-5a.7073.7073 0 0 1 1 0l1.2227 1.2227c.1057-.3747.2344-.5748.4043-.4688-.0005-.1713.0004-.347.002-.5273V4.0742c0-.831-.669-1.5-1.5-1.5z"/><path fill="url(#d)" d="M4 2c-1.0994 0-2 .9006-2 2v8c0 1.0994.9006 2 2 2h4l-1-1H4c-.5626 0-1-.4374-1-1V4c0-.5626.4374-1 1-1h8c.5626 0 1 .4374 1 1v3l1 1V4c.0015-1.0994-.9006-2-2-2H6.7734Z" overflow="visible"/><path fill="none" stroke="url(#a)" stroke-linecap="round" stroke-linejoin="round" stroke-width="1.2122" d="M20-3h2v2h-2zm2 4h-2v2h2zm2-4h2v2h-2zm2 4h-2v2h2z" transform="rotate(45 1.4453 -3.5546) scale(.82496)"/></svg>