<svg xmlns="http://www.w3.org/2000/svg" xmlns:xlink="http://www.w3.org/1999/xlink" viewBox="0 0 16 16"><defs><linearGradient id="b"><stop offset="0" stop-color="#2a551f"/></linearGradient><linearGradient id="a" gradientTransform="translate(-25 4)"><stop offset="0" stop-color="#63a451"/></linearGradient><linearGradient xlink:href="#a" id="d" x1="2" x2="14" y1="8" y2="8" gradientUnits="userSpaceOnUse"/><linearGradient xlink:href="#b" id="c" x1="2.6016" x2="13.629" y1="7.9428" y2="7.9428" gradientUnits="userSpaceOnUse"/></defs><path fill="url(#c)" d="M4.1016 2.5742c-.831 0-1.5.669-1.5 1.5v7.7363c0 .831.669 1.4989 1.5 1.5.877.0013 1.6736.0014 2.3984-.002V8.0937C6.5 7.2108 7.2108 6.5 8.0938 6.5h5.3125c.075 0 .1485.0057.2207.0156.0003-.0948.0012-.1915.002-.289V4.0742c0-.831-.669-1.5-1.5-1.5z"/><path fill="url(#d)" d="M4 2c-1.0994 0-2 .9006-2 2v8c0 1.0994.9006 2 2 2h2.6133a1.597 1.597 0 0 1-.1133-.5938V13H4c-.5626 0-1-.4374-1-1V4c0-.5626.4374-1 1-1h8c.5626 0 1 .4374 1 1v2.5h.4063c.21 0 .4104.04.5937.1133V4c.0015-1.0994-.9006-2-2-2H6.7734Z" overflow="visible"/><path fill="none" stroke="url(#a)" stroke-linecap="round" stroke-linejoin="round" d="M8 10V8h2m2 6h2v-2m-2-4h2v2m-4 4H8v-2"/></svg>